HIERARCHY
ROOT SpineBase
{
  OFFSET 0.000000 0.000000 0.000000
  CHANNELS 6 Xposition Yposition Zposition Zrotation Xrotation Yrotation
  JOINT SpineMid
  {
    OFFSET 0.000000 32.984993 0.000000
    CHANNELS 3 Zrotation Xrotation Yrotation
    JOINT SpineShoulder
    {
      OFFSET 0.156355 24.314897 -0.808812
      CHANNELS 3 Zrotation Xrotation Yrotation
      JOINT Neck
      {
        OFFSET 0.250285 8.046019 -0.575608
        CHANNELS 3 Zrotation Xrotation Yrotation
        JOINT Head
        {
          OFFSET 1.862971 9.599535 5.853962
          CHANNELS 3 Zrotation Xrotation Yrotation
          End Site
          {
            OFFSET 0 0 0
          }
        }
      }
      JOINT ShoulderLeft
      {
        OFFSET -2.061483 -6.219264 -14.726453
        CHANNELS 3 Zrotation Xrotation Yrotation
        JOINT ElbowLeft
        {
          OFFSET -0.389331 -27.436662 -9.183306
          CHANNELS 3 Zrotation Xrotation Yrotation
          JOINT WristLeft
          {
            OFFSET 5.787959 -20.322787 -0.818875
            CHANNELS 3 Zrotation Xrotation Yrotation
            JOINT HandLeft
            {
              OFFSET 0.854885 -7.444843 0.719927
              CHANNELS 3 Zrotation Xrotation Yrotation
              JOINT HandTipLeft
              {
                OFFSET 1.778567 -6.641762 2.121643
                CHANNELS 3 Zrotation Xrotation Yrotation
                End Site
                {
                  OFFSET 0 0 0
                }
              }
              JOINT ThumbLeft
              {
                OFFSET -4.500046 1.953071 3.919140
                CHANNELS 3 Zrotation Xrotation Yrotation
                End Site
                {
                  OFFSET 0 0 0
                }
              }
            }
          }
        }
      }
      JOINT ShoulderRight
      {
        OFFSET 9.954714 0.026471 14.347387
        CHANNELS 3 Zrotation Xrotation Yrotation
        JOINT ElbowRight
        {
          OFFSET 2.933343 -24.892350 11.280554
          CHANNELS 3 Zrotation Xrotation Yrotation
          JOINT WristRight
          {
            OFFSET -3.818152 -27.043031 -8.386686
            CHANNELS 3 Zrotation Xrotation Yrotation
            JOINT HandRight
            {
              OFFSET -4.453832 -23.422191 1.836807
              CHANNELS 3 Zrotation Xrotation Yrotation
              JOINT HandTipRight
              {
                OFFSET -0.094246 -0.267164 -0.911341
                CHANNELS 3 Zrotation Xrotation Yrotation
                End Site
                {
                  OFFSET 0 0 0
                }
              }
              JOINT ThumbRight
              {
                OFFSET -0.110172 0.714235 -2.318634
                CHANNELS 3 Zrotation Xrotation Yrotation
                End Site
                {
                  OFFSET 0 0 0
                }
              }
            }
          }
        }
      }
    }
  }
  JOINT HipLeft
  {
    OFFSET -2.329533 -0.134771 -5.834270
    CHANNELS 3 Zrotation Xrotation Yrotation
    JOINT KneeLeft
    {
      OFFSET -5.764094 -31.304640 -1.514460
      CHANNELS 3 Zrotation Xrotation Yrotation
      JOINT AnkleLeft
      {
        OFFSET -10.042172 -33.072569 1.409321
        CHANNELS 3 Zrotation Xrotation Yrotation
        JOINT FootLeft
        {
          OFFSET 3.858309 -7.555400 -2.184031
          CHANNELS 3 Zrotation Xrotation Yrotation
          End Site
          {
            OFFSET 0 0 0
          }
        }
      }
    }
  }
  JOINT HipRight
  {
    OFFSET 2.743634 1.548625 -2.282782
    CHANNELS 3 Zrotation Xrotation Yrotation
    JOINT KneeRight
    {
      OFFSET 0.822290 -32.506408 17.586493
      CHANNELS 3 Zrotation Xrotation Yrotation
      JOINT AnkleRight
      {
        OFFSET -11.825573 -35.657436 0.625203
        CHANNELS 3 Zrotation Xrotation Yrotation
        JOINT FootRight
        {
          OFFSET 2.616992 -7.102751 -0.109229
          CHANNELS 3 Zrotation Xrotation Yrotation
          End Site
          {
            OFFSET 0 0 0
          }
        }
      }
    }
  }
}
MOTION
Frames: 6
Frame Time: 0.033333
-13.963608 76.256447 335.993308 -0.000000 0.000000 -34.994079 0.000000 0.000000 34.994079 -0.000000 0.000000 0.000000 -0.000000 0.000000 0.000000 0.000000 0.000000 0.000000 -0.000000 0.000000 0.000000 -0.000000 0.000000 0.000000 -0.000000 0.000000 0.000000 -0.000000 0.000000 0.000000 0.000000 0.000000 0.000000 0.000000 0.000000 0.000000 -0.000000 0.000000 0.000000 -0.000000 0.000000 0.000000 -0.000000 0.000000 0.000000 -0.000000 0.000000 0.000000 0.000000 0.000000 0.000000 0.000000 0.000000 0.000000 0.000000 0.000000 34.994079 -0.000000 0.000000 0.000000 -0.000000 0.000000 0.000000 0.000000 0.000000 0.000000 0.000000 0.000000 34.994079 -0.000000 0.000000 0.000000 -0.000000 0.000000 0.000000 0.000000 0.000000 0.000000
-13.984648 76.273180 335.912821 -0.076103 -0.103880 -35.923894 0.000681 0.128772 35.923824 -0.000000 0.000000 0.000000 -0.000000 0.000000 0.000000 0.000000 0.000000 0.000000 -0.000000 0.000000 0.000000 -0.000000 0.000000 0.000000 -0.000000 0.000000 0.000000 -0.411905 1.139801 0.178489 0.000000 0.000000 0.000000 0.000000 0.000000 0.000000 -0.000000 0.000000 0.000000 -0.000000 0.000000 0.000000 -0.000000 0.000000 0.000000 -0.000000 0.000000 0.000000 0.000000 0.000000 0.000000 0.000000 0.000000 0.000000 0.000681 0.128772 35.923824 -0.000000 0.000000 0.000000 -0.884994 1.308112 0.934555 0.000000 0.000000 0.000000 0.000681 0.128772 35.923824 -0.000000 0.000000 0.000000 -0.060428 1.362618 0.503727 0.000000 0.000000 0.000000
-13.999442 76.300698 335.820974 -0.140588 -0.186832 -36.641524 0.001304 0.233815 36.641292 -0.000000 0.000000 0.000000 -0.000000 0.000000 0.000000 0.000000 0.000000 0.000000 -0.204770 0.803708 0.058431 0.203970 -0.803911 -0.055564 -0.000000 0.000000 0.000000 -0.780258 2.092779 0.327991 0.000000 0.000000 0.000000 0.000000 0.000000 0.000000 -0.000000 0.000000 0.000000 -0.000000 0.000000 0.000000 -0.000000 0.000000 0.000000 -0.000000 0.000000 0.000000 0.000000 0.000000 0.000000 0.000000 0.000000 0.000000 0.001304 0.233815 36.641292 -0.000000 0.000000 0.000000 -1.642384 2.244239 1.655806 0.000000 0.000000 0.000000 0.001304 0.233815 36.641292 -0.000000 0.000000 0.000000 0.265119 2.340029 0.851797 0.000000 0.000000 0.000000
-14.007990 76.339002 335.717768 -0.193449 -0.248835 -37.159979 0.003863 0.315161 37.159548 -0.000000 0.000000 0.000000 -0.000000 0.000000 0.000000 0.000000 0.000000 0.000000 -0.279078 1.055602 0.080750 -0.119261 -0.256837 0.163488 0.151380 -1.844209 -0.389498 -0.878677 3.911179 0.608621 0.000000 0.000000 0.000000 0.000000 0.000000 0.000000 -0.000000 0.000000 0.000000 -0.000000 0.000000 0.000000 -0.000000 0.000000 0.000000 -0.000000 0.000000 0.000000 0.000000 0.000000 0.000000 0.000000 0.000000 0.000000 0.003863 0.315161 37.159548 -0.000000 0.000000 0.000000 -2.265141 2.824008 2.159293 0.000000 0.000000 0.000000 0.003863 0.315161 37.159548 -0.000000 0.000000 0.000000 0.970996 2.964163 1.048606 0.000000 0.000000 0.000000
-14.010292 76.388092 335.603202 -0.234671 -0.289853 -37.487769 0.009807 0.372812 37.487143 0.659705 -0.669959 0.071876 -0.658909 0.670742 -0.064162 0.000000 0.000000 0.000000 -0.992247 1.878875 0.037755 -0.146458 -0.308542 0.178307 0.331590 -3.541196 -0.592863 -1.299112 6.107792 0.913799 0.000000 0.000000 0.000000 0.000000 0.000000 0.000000 -0.658909 0.670742 -0.064162 -0.000000 0.000000 0.000000 -0.000000 0.000000 0.000000 -0.000000 0.000000 0.000000 0.000000 0.000000 0.000000 0.000000 0.000000 0.000000 0.009807 0.372812 37.487143 -0.000000 0.000000 0.000000 -2.749654 3.058869 2.441574 0.000000 0.000000 0.000000 0.009807 0.372812 37.487143 -0.000000 0.000000 0.000000 2.058655 3.253377 1.101086 0.000000 0.000000 0.000000
-14.006348 76.447968 335.477277 -0.264233 -0.309835 -37.629159 0.020100 0.406709 37.628373 0.783687 -0.752715 0.084607 -0.782643 0.753801 -0.074310 0.000000 0.000000 0.000000 -1.152400 2.014598 0.040590 -0.168235 -0.341014 0.174323 0.578704 -5.808521 -0.829390 -1.807649 8.785478 1.294009 0.000000 0.000000 0.000000 0.000000 0.000000 0.000000 -0.782643 0.753801 -0.074310 -0.000000 0.000000 0.000000 -0.000000 0.000000 0.000000 -0.000000 0.000000 0.000000 0.000000 0.000000 0.000000 0.000000 0.000000 0.000000 0.020100 0.406709 37.628373 -0.000000 0.000000 0.000000 -3.095075 2.955004 2.499576 0.000000 0.000000 0.000000 0.020100 0.406709 37.628373 -0.000000 0.000000 0.000000 3.535743 3.213661 1.018718 0.000000 0.000000 0.000000
